<?xml version="1.0" encoding="iso-8859-1"?>
<!-- Generator: Adobe Illustrator 19.0.0, SVG Export Plug-In . SVG Version: 6.00 Build 0)  -->
<svg version="1.1" id="Capa_1" xmlns="http://www.w3.org/2000/svg" xmlns:xlink="http://www.w3.org/1999/xlink" x="0px" y="0px"
	 viewBox="0 0 464 464" style="enable-background:new 0 0 464 464;" xml:space="preserve">
<g>
	<g>
		<path d="M424,112H296c-13.232,0-24-10.768-24-24c0-22.056-17.944-40-40-40H104c-22.056,0-40,17.944-40,40
			c0,13.232-10.768,24-24,24c-22.056,0-40,17.944-40,40v224c0,22.056,17.944,40,40,40h384c22.056,0,40-17.944,40-40V152
			C464,129.944,446.056,112,424,112z M448,376c0,13.232-10.768,24-24,24H40c-13.232,0-24-10.768-24-24V152c0-13.232,10.768-24,24-24
			c22.056,0,40-17.944,40-40c0-13.232,10.768-24,24-24h128c13.232,0,24,10.768,24,24c0,22.056,17.944,40,40,40h128
			c13.232,0,24,10.768,24,24V376z"/>
	</g>
</g>
<g>
	<g>
		<path d="M168,144c-57.344,0-104,46.656-104,104s46.656,104,104,104s104-46.656,104-104S225.344,144,168,144z M168,336
			c-48.52,0-88-39.48-88-88c0-48.52,39.48-88,88-88s88,39.48,88,88S216.52,336,168,336z"/>
	</g>
</g>
<g>
	<g>
		<path d="M376,144c-13.232,0-24,10.768-24,24s10.768,24,24,24s24-10.768,24-24S389.232,144,376,144z M376,176c-4.416,0-8-3.584-8-8
			s3.584-8,8-8c4.416,0,8,3.584,8,8S380.416,176,376,176z"/>
	</g>
</g>
<g>
	<g>
		<path d="M392,272h-64c-4.424,0-8,3.576-8,8s3.576,8,8,8h64c4.424,0,8-3.576,8-8S396.424,272,392,272z"/>
	</g>
</g>
<g>
	<g>
		<path d="M392,304h-64c-4.424,0-8,3.576-8,8s3.576,8,8,8h64c4.424,0,8-3.576,8-8S396.424,304,392,304z"/>
	</g>
</g>
<g>
	<g>
		<path d="M392,336h-64c-4.424,0-8,3.576-8,8s3.576,8,8,8h64c4.424,0,8-3.576,8-8S396.424,336,392,336z"/>
	</g>
</g>
<g>
</g>
<g>
</g>
<g>
</g>
<g>
</g>
<g>
</g>
<g>
</g>
<g>
</g>
<g>
</g>
<g>
</g>
<g>
</g>
<g>
</g>
<g>
</g>
<g>
</g>
<g>
</g>
<g>
</g>
</svg>
