<svg xmlns="http://www.w3.org/2000/svg" height="750pt" version="1.1" viewBox="-112 0 750 750" width="750pt">
<g id="surface1">
<path d="M 512.5 375 C 519.40625 375 525 369.40625 525 362.5 L 525 12.5 C 525 5.59375 519.40625 0 512.5 0 L 100 0 C 95.546875 0.00390625 91.429688 2.390625 89.203125 6.25 L 1.703125 156.25 C 0.589844 158.148438 0.00390625 160.304688 0 162.5 L 0 700 C 0 727.613281 22.386719 750 50 750 L 475 750 C 502.613281 750 525 727.613281 525 700 L 525 462.5 C 525 455.59375 519.40625 450 512.5 450 L 475 450 L 475 375 Z M 500 350 L 475 350 L 475 275 L 500 275 Z M 387.5 25 L 437.5 25 L 437.5 150 L 387.5 150 Z M 362.5 150 L 312.5 150 L 312.5 25 L 362.5 25 Z M 287.5 150 L 237.5 150 L 237.5 25 L 287.5 25 Z M 212.5 25 L 212.5 150 L 162.5 150 L 162.5 25 Z M 500 475 L 500 700 C 500 713.808594 488.808594 725 475 725 L 50 725 C 36.191406 725 25 713.808594 25 700 L 25 165.890625 L 107.179688 25 L 137.5 25 L 137.5 162.5 C 137.5 169.40625 143.09375 175 150 175 L 450 175 C 456.90625 175 462.5 169.40625 462.5 162.5 L 462.5 25 L 500 25 L 500 250 L 462.5 250 C 455.59375 250 450 255.59375 450 262.5 L 450 462.5 C 450 469.40625 455.59375 475 462.5 475 Z M 500 475 " style=" stroke:none;fill-rule:nonzero;fill:rgb(0%,0%,0%);fill-opacity:1;" />
</g>
</svg>