<?xml version="1.0"?>
<svg xmlns="http://www.w3.org/2000/svg" id="Layer_1" data-name="Layer 1" viewBox="0 0 512 512" width="512" height="512"><title>ratings</title><path d="M485.481,366.638,416.57,356.624l-30.818-62.443a7,7,0,0,0-12.555,0L342.38,356.624l-30.524,4.435-2.491-.525L238.89,337.685V305.366a102.7,102.7,0,0,0,48.22-68.846l4.157-14.294a32.863,32.863,0,0,0,21.758-39.064,26.181,26.181,0,0,0-17.058-18.723V117.763a109.764,109.764,0,0,0-219.527,0v46.66a26.185,26.185,0,0,0-17.1,18.74A32.861,32.861,0,0,0,81.1,222.226l4.156,14.295a102.7,102.7,0,0,0,48.221,68.846v32.318l-70.83,22.963c-19.782,6.415-34.783,21.862-40.125,41.319-.209.757-.4,1.519-.583,2.292a57.145,57.145,0,0,0-1.413,13.124v51.6a7,7,0,0,0,7,7H311.084l-3.4,19.837a7,7,0,0,0,10.157,7.38l61.636-32.4,61.635,32.4a7,7,0,0,0,10.158-7.38L439.5,427.184l49.864-48.606a7,7,0,0,0-3.879-11.94ZM195.067,119.791c8.93,9.5,36.973,34.724,86.9,39.855v3.6c-19.341-.475-76.524-4.717-121.935-36.891l.628-.082A298.206,298.206,0,0,0,195.067,119.791ZM90.44,117.763a95.764,95.764,0,0,1,191.527,0v27.785c-36.664-4.161-60.155-20.4-71.32-30.248,18.726-6.144,34.674-14.221,47.671-24.189A7,7,0,1,0,249.8,80c-26.565,20.373-63.983,28.839-90.695,32.353a327.19,327.19,0,0,1-52.851,2.737,7,7,0,0,0-7.352,6.673l-1.7,37.313a6.662,6.662,0,0,1-3.54,5.646,7,7,0,0,1-3.222.837Zm8.509,115.83c-.042-.222-.095-.443-.158-.66l-5.145-17.7a7,7,0,0,0-5.691-5.7,18.85,18.85,0,0,1-15.018-23.04,12.135,12.135,0,0,1,8.566-8.981,20.762,20.762,0,0,0,29.685-17.8l1.387-30.464c6.031.056,15.593-.057,27.29-.89,31.215,26.77,69.542,38.646,96.493,43.9,29.77,5.8,51.952,5.03,52.877,5,.158-.006.311-.025.464-.041a12.247,12.247,0,0,1,9.729,9.273,19,19,0,0,1,.539,4.5,18.782,18.782,0,0,1-15.557,18.542,7,7,0,0,0-5.691,5.7l-5.146,17.7q-.094.326-.158.66a88.762,88.762,0,0,1-174.466,0Zm87.234,86.36a102.4,102.4,0,0,0,38.707-7.582v26.2a90.035,90.035,0,0,1-77.414,0v-26.2A102.4,102.4,0,0,0,186.183,319.953Zm127.3,142.026H34.525v-44.6a43.393,43.393,0,0,1,1.045-9.938q.209-.887.45-1.768c4.091-14.9,15.66-26.755,30.945-31.71l72.784-23.6a103.985,103.985,0,0,0,92.867,0L279.908,365.7l-6.44.936a7,7,0,0,0-3.879,11.94l49.864,48.606Zm113.6-42.251a7,7,0,0,0-2.014,6.2l10,58.28-52.339-27.516a7,7,0,0,0-6.515,0L323.878,484.2l10-58.28a7,7,0,0,0-2.014-6.2l-42.342-41.275,58.517-8.5a7,7,0,0,0,5.271-3.83L379.475,313.1l26.17,53.025a7,7,0,0,0,5.27,3.83l58.517,8.5Z"/></svg>
